<?xml version="1.0" encoding="utf-8"?>
<!-- Generator: Adobe Illustrator 28.1.0, SVG Export Plug-In . SVG Version: 6.00 Build 0)  -->
<svg version="1.1" id="Calque_1" xmlns="http://www.w3.org/2000/svg" xmlns:xlink="http://www.w3.org/1999/xlink" x="0px" y="0px"
	 viewBox="0 0 1126.2 332" style="enable-background:new 0 0 1126.2 332;" xml:space="preserve">
<style type="text/css">
	.st0{fill:#FFFFFF;}
</style>
<g id="Calque_1_00000091004674018981459780000012327907947209343873_">
	<path class="st0" d="M291.6,91.8h31.9l36.3,101.7l36.3-101.7h32l-51.2,139h-34.2L291.6,91.8z"/>
	<path class="st0" d="M543.7,91.8h29v69.5c0,12.5,2.6,22.5,7.7,30c5.1,7.6,12.3,11.3,21.6,11.3s16.6-3.8,21.8-11.3s7.9-17.6,7.9-30
		V91.8h29v69.5c0,22.6-5.5,40.2-16.5,52.9c-11,12.7-25.1,19-42.2,19c-17.2,0-31.2-6.3-42-18.9c-10.9-12.6-16.3-30.3-16.3-53V91.8
		L543.7,91.8z"/>
	<path class="st0" d="M678.7,91.8h30v112h52v27h-82V91.8L678.7,91.8z"/>
	<path class="st0" d="M754.7,91.8h105v27h-39v112h-29v-112h-37V91.8L754.7,91.8z"/>
	<path class="st0" d="M866.8,91.8h32.6l35.8,65.9l36-65.9h32.6l-54,95.6v43.4h-29v-43.4L866.8,91.8z"/>
	<path class="st0" d="M1121.2,189.5c0,14.5-4.8,25.4-14.3,32.7c-9.6,7.4-22.9,11-40,11c-6.1,0-12.1-0.6-18-1.7s-10.9-2.5-15-4
		c-4.1-1.6-7.8-3.1-11-4.6s-5.7-2.9-7.3-4l-2.3-1.6l14.2-24.2c1.5,1.1,3.6,2.3,6.3,3.8c2.7,1.5,7.7,3.5,15,6s14.1,3.7,20.3,3.7
		c14.4,0,21.7-5.6,21.7-16.7c0-4.5-2.5-8.2-7.6-11.1c-5.1-3-11.2-5.4-18.5-7.4s-14.6-4.2-21.8-6.8c-7.3-2.6-13.5-6.5-18.5-11.8
		c-5.1-5.3-7.6-12-7.6-20c0-13.9,5-24.7,15.1-32.2s22.1-11.3,36.2-11.3c5.9,0,11.8,0.6,17.6,1.9c5.8,1.3,10.6,2.8,14.4,4.6
		c3.9,1.8,7.3,3.7,10.3,5.5s5.2,3.3,6.8,4.5l2.1,2l-13.7,22.9c-1.3-1-3.1-2.4-5.4-3.9s-7-3.7-14.1-6.3c-7-2.6-13.8-3.9-20.4-3.9
		s-11.5,1.7-14.2,5s-4.2,6.9-4.2,10.7c0,2.6,1.8,5,5.5,7s8.2,3.7,13.7,5.1c5.4,1.4,11.4,3.2,17.9,5.5s12.4,4.9,17.9,7.8
		c5.4,2.9,10,7.1,13.7,12.6C1119.3,175.7,1121.2,182.1,1121.2,189.5z"/>
	<path class="st0" d="M533.7,140.4l-17,10.4V91.7h-36l-94.5,139h49l49.4-28.8v28.8h32v-47.4l17-9.9L533.7,140.4L533.7,140.4z
		 M447.7,193.1l37-54.5v31.8L447.7,193.1L447.7,193.1z"/>
	<path class="st0" d="M19.7,130.3c24.4-5.1,57.3-7.6,91.4-7.6l0,0c34.9,0,71.2,2.5,101,7.6c-8.5,7.2-17.6,18.6-17.6,35.4v50.1
		c0,0-28.3,49.9-78.9,73c0,0-56.9-32.9-75.7-75.2v-54C40.1,159.4,39.5,145.1,19.7,130.3L19.7,130.3z"/>
	<path class="st0" d="M229.5,117.2C155.6,98.1,28,110.7,4.8,115.9c-1.2-13-2.5-37.2,1.2-60.4c0,0,12.2-5.5,32.9-10.9v10.6
		c-0.1,7.3,6,13.2,13.4,13.2s13.4-5.9,13.4-13.2V38.6c11.3-2,23.9-3.6,37.4-4.6v17.8c0,8,6.6,14.5,14.7,14.5s14.7-6.6,14.7-14.5
		V33.7c11.9,0.4,24.5,1.7,37.4,3.9v17.6c0,7.2,6,13.1,13.4,13.1s13.4-5.9,13.4-13.1V43.5c10.8,3,21.8,6.9,32.7,11.8
		C228.4,55.4,231.7,90.9,229.5,117.2L229.5,117.2z"/>
	<path d="M63.5,182.5c1.3,0.9,3.2,0.8,4.3-0.5c0.7-0.7,1.2-1.4,1.7-2.2c5.2-6.7,11.7-12,19.4-15.6c11.6-5.6,23.9-7.5,36.5-5.6
		c14.9,2.1,27.3,8.7,36.9,20.2c0.9,1.1,1.7,2.2,2.6,3.3c0.8,0.9,2.2,1.3,3.4,0.8c1.1-0.4,1.8-1.4,2-2.8c-0.3-0.5-0.4-1.3-0.8-1.7
		c-5.2-7.2-11.7-13.1-19.4-17.6c-13-7.3-26.9-9.8-41.6-8.3c-11.8,1.3-22.7,5.4-32.4,12.4c-5.2,3.9-9.6,8.4-13.4,13.6
		C62,179.7,62.2,181.6,63.5,182.5z"/>
	<path d="M111.2,166.4c-11.2,0.9-21.1,5.2-29.5,12.8c-6.7,5.9-11.2,13.1-13.5,21.6c-2.1,8.4-1.7,16.8,0.1,25
		c0.8,3.3,1.8,6.6,2.9,9.8c0.4,1.3,1.4,1.8,2.8,2c1.2,0.1,2.1-0.5,2.8-1.4c0.5-0.9,0.4-2,0.1-2.9c-2.4-6.6-3.7-13.2-3.7-19.5
		c-0.1-6.6,0.9-12.4,2.9-16.7c8.4-18.6,29.8-28.4,49.8-24.1c6.4,1.3,12.2,4,17.6,7.9c6,4.6,10.5,10.1,13.5,17
		c1.8,4.4,2.6,8.8,2.9,13.5c0.3,3.8-0.9,6.8-3.6,9.2c-3.9,3.4-8.7,4.4-13.8,2.4c-4.8-2-7.5-5.8-7.6-11c-0.1-1.7-0.4-3.4-0.9-5.2
		c-3.2-8.7-13-13.5-22.3-11c-7.3,1.8-13.1,8.1-13.5,15.1c-0.4,6.8,0.9,13.2,3.6,19.4c3,7.1,7.9,12.8,14,17.4
		c5.2,4.2,11.3,6.7,17.7,8.3c1.2,0.3,2.2-0.1,3-1.1c0.8-0.9,0.9-2.1,0.1-3.2c-0.7-0.8-1.4-1.3-2.4-1.6c-3.7-1.1-7.5-2.4-10.8-4.4
		c-10.8-6.6-17.4-15.9-19.2-28.6c-0.3-2.4-0.4-5.1,0.1-7.3c1.2-5.2,6.4-8.8,12.1-8.8c6.7,0,12.3,5.1,12.3,11.4
		c0.1,2.5,0.5,5.1,1.7,7.5c3.4,6.8,10.4,10.6,18.6,10.1c9.4-0.7,16.8-8.5,16.7-17.7c-0.1-11.3-3.9-21-11.4-29.2
		C142.7,170.4,128.3,165.1,111.2,166.4L111.2,166.4z"/>
	<path d="M154.5,237.4c-0.8-0.7-1.8-0.7-2.9-0.5c-2.9,0.1-5.9,0.5-8.7,0.4c-9.7-0.8-16.7-5.8-21.2-14.2c-0.7-1.1-1.1-2.2-1.4-3.3
		c1.3-1.1,2-2.6,2-4.6c0-3.3-2.8-6.2-6.2-6.2H116c-0.1,0-0.1,0-0.1,0h-0.1c-0.1,0-0.1,0-0.1,0c-3,0.3-5.6,2.8-5.6,6
		c0,2.6,1.7,5,4.2,5.8c1.3,4.6,3.8,8.8,7.3,12.4c6.6,6.9,14.7,10,24.3,10.1c2.5-0.3,5-0.5,7.5-0.9c1.3-0.3,2-1.2,2.2-2.4
		C155.9,239,155.4,238.2,154.5,237.4L154.5,237.4z"/>
	<path d="M82.9,151.4c0.8-0.4,1.7-0.8,2.5-1.3c8.4-4.2,17.3-6.4,26.6-7.1c11-0.7,21.8,1.1,32,5.6c2,0.9,3.8,1.7,5.9,2.6
		c1.7,0.8,3.3,0.1,4.2-1.3c0.7-1.4,0.1-3.2-1.4-4c-0.9-0.4-1.8-0.9-2.8-1.3c-6.9-3.3-14.2-5.8-21.8-6.8c-2.4-0.3-4.8-0.5-7.3-0.9h-8
		c-0.3,0.1-0.7,0.1-1.1,0.1c-7.7,0.4-15.2,2-22.3,4.8c-3,1.2-6.2,2.6-9.1,4.2c-1.4,0.8-2,2.5-1.3,4
		C79.5,151.6,81.3,152.1,82.9,151.4L82.9,151.4z"/>
	<path d="M102.7,247.4c-3.7-3.8-6.7-8-9.1-12.6c-3.6-6.8-5.2-14-5.2-21.6c-0.1-7.7,2.8-14.3,8.5-19.5c8.9-7.7,19.2-9.3,30.3-5.2
		c8.1,2.9,13.6,8.8,16.1,16.9c-1.2,0.8-2.1,2.1-2.4,3.6c-0.1,0.4-0.1,0.8-0.1,1.3c0,3.3,2.8,6,6.2,6c0.7,0,1.2-0.1,1.8-0.3
		c2-0.5,3.4-2.1,4.2-4.2c0.1-0.5,0.3-1.1,0.3-1.6c0-2.2-1.3-4.4-3.4-5.4c-0.9-3.9-2.5-7.3-5.1-10.6c-6.9-9.2-16.4-13.5-26.9-13.9
		c-8.8,0.1-16,2.2-22.3,7.1c-7.3,5.6-11.7,13-12.6,22.2c-0.5,5.5,0.1,10.8,1.4,16.1c1.8,7.9,5.8,14.7,10.6,21.1
		c1.8,2.4,4.2,4.6,6.2,6.8c1.2,1.2,2.9,1.2,4.2,0.1s1.3-2.8,0.3-4.2C104.3,249,103.5,248.2,102.7,247.4z"/>
</g>
<g id="Dimensions">
</g>
</svg>
